<?xml version="1.0" standalone="no"?>
<!DOCTYPE svg PUBLIC "-//W3C//DTD SVG 20010904//EN"
 "http://www.w3.org/TR/2001/REC-SVG-20010904/DTD/svg10.dtd">
<svg version="1.0" xmlns="http://www.w3.org/2000/svg"
 width="880.000000pt" height="880.000000pt" viewBox="0 0 880.000000 880.000000"
 preserveAspectRatio="xMidYMid meet">
<metadata>
Created by potrace 1.11, written by Peter Selinger 2001-2013
</metadata>
<g transform="translate(0.000000,880.000000) scale(0.100000,-0.100000)"
fill="#000000" stroke="none">
<path d="M3995 8589 c-176 -104 -329 -194 -340 -200 -11 -5 -33 -18 -50 -29
-16 -11 -41 -26 -55 -33 -21 -10 -181 -105 -241 -142 -9 -5 -32 -18 -50 -29
-19 -10 -136 -79 -261 -152 -125 -74 -232 -134 -237 -134 -5 0 -11 -4 -13 -8
-1 -4 -25 -21 -53 -36 -117 -66 -141 -80 -165 -96 -14 -10 -90 -55 -170 -101
-80 -46 -146 -87 -148 -91 -2 -5 -9 -8 -15 -8 -7 0 -40 -18 -75 -40 -34 -22
-65 -40 -68 -40 -2 0 -40 -22 -84 -50 -44 -27 -80 -46 -80 -42 0 4 -4 2 -8 -4
-4 -5 -99 -64 -212 -130 -113 -65 -214 -124 -225 -131 -11 -7 -29 -17 -40 -23
-11 -5 -38 -21 -60 -35 -22 -14 -60 -36 -85 -50 -25 -14 -63 -37 -85 -50 -22
-14 -59 -35 -82 -47 -24 -12 -43 -26 -43 -30 0 -4 -4 -8 -9 -8 -5 0 -84 -44
-175 -97 -92 -54 -177 -104 -191 -111 l-25 -13 0 -2158 0 -2157 32 -17 c18 -9
47 -25 63 -35 17 -10 68 -40 115 -67 111 -66 106 -63 202 -119 46 -26 108 -62
138 -79 30 -17 57 -33 60 -37 3 -4 10 -9 15 -11 9 -3 193 -110 275 -159 59
-36 223 -131 260 -152 47 -27 138 -80 205 -121 22 -13 135 -79 250 -146 116
-67 217 -126 225 -131 99 -60 216 -127 222 -126 3 0 17 -8 30 -20 13 -11 34
-26 48 -32 14 -7 34 -18 45 -25 88 -54 148 -87 156 -87 5 0 9 -4 9 -10 0 -5 6
-10 14 -10 8 0 16 -3 18 -7 2 -5 29 -21 60 -38 32 -16 58 -33 58 -37 0 -5 5
-8 11 -8 10 0 129 -67 209 -119 14 -8 28 -14 33 -13 4 1 7 -2 7 -8 0 -5 7 -10
15 -10 8 0 15 -4 15 -10 0 -5 6 -10 13 -10 6 0 40 -18 75 -40 34 -22 64 -40
66 -40 2 0 35 -19 72 -42 38 -23 94 -55 124 -71 30 -16 61 -35 69 -41 16 -13
33 -22 105 -61 31 -16 56 -33 56 -37 0 -4 4 -8 10 -8 5 0 73 -38 152 -84 l143
-84 45 24 c25 14 61 34 80 45 99 59 381 225 420 247 25 14 73 43 108 64 34 21
67 38 72 38 6 0 10 5 10 10 0 6 4 10 9 10 5 0 44 20 85 45 42 25 81 45 86 45
6 0 10 4 10 8 0 5 15 15 33 24 17 9 101 57 185 107 84 50 158 91 163 91 5 0 9
5 9 10 0 6 5 10 10 10 6 0 29 11 51 26 22 14 55 33 72 43 18 10 100 58 182
106 83 49 160 93 172 99 13 6 23 14 23 19 0 4 4 7 9 7 5 0 70 36 145 80 76 44
141 80 146 80 6 0 10 3 10 8 0 4 17 16 38 27 20 11 53 29 72 41 19 11 39 21
44 22 5 0 12 4 15 9 3 5 26 20 51 34 25 14 139 81 254 148 115 68 223 131 240
141 17 9 54 31 81 48 28 17 73 43 100 57 28 15 57 33 65 40 8 7 25 16 38 19
12 4 22 11 22 15 0 4 16 13 35 21 19 8 35 17 35 22 0 4 4 8 9 8 10 0 354 200
361 210 3 4 14 10 26 14 11 3 29 14 40 24 19 18 19 49 19 2165 0 1895 -2 2148
-15 2161 -8 7 -35 25 -60 38 -25 13 -64 36 -87 51 -24 15 -47 27 -53 27 -5 0
-10 5 -10 10 0 6 -5 10 -12 10 -6 0 -32 13 -57 29 -73 46 -135 81 -153 88 -10
3 -18 9 -18 14 0 5 -4 9 -9 9 -5 0 -56 28 -113 61 -57 34 -116 69 -133 79 -16
10 -70 41 -118 69 -49 28 -93 51 -98 51 -5 0 -9 4 -9 8 0 5 -15 16 -32 25 -18
9 -46 25 -63 35 -16 9 -97 57 -180 105 -82 49 -157 93 -165 98 -73 45 -224
129 -231 129 -5 0 -9 3 -9 8 0 4 -10 12 -23 18 -44 21 -122 67 -138 80 -8 8
-19 14 -22 14 -4 0 -26 12 -50 27 -23 15 -44 28 -47 28 -3 0 -14 6 -25 13 -11
7 -92 55 -180 107 -88 52 -180 106 -205 121 -25 15 -48 27 -52 26 -5 -1 -8 3
-8 8 0 6 -4 10 -9 10 -4 0 -63 33 -130 73 -189 111 -235 137 -253 144 -10 3
-18 8 -18 12 0 4 -22 18 -50 32 -27 13 -50 27 -50 32 0 4 -4 7 -10 7 -5 0 -55
27 -110 60 -55 33 -103 60 -106 60 -3 0 -24 13 -47 28 -23 16 -49 32 -57 35
-8 4 -28 16 -45 26 -44 27 -252 149 -305 179 -25 14 -58 34 -75 44 -16 10 -34
18 -40 17 -5 0 -154 -86 -330 -190z m421 -524 c40 -25 76 -45 79 -45 4 0 21
-11 39 -25 18 -14 36 -25 39 -25 5 0 209 -118 277 -160 8 -5 76 -44 150 -87
74 -42 137 -81 138 -85 2 -4 7 -8 12 -8 4 0 108 -59 231 -131 123 -73 238
-140 254 -149 276 -161 351 -205 353 -212 2 -4 8 -8 14 -8 5 0 73 -38 151 -84
78 -46 156 -92 174 -102 55 -33 235 -138 277 -162 23 -13 78 -46 123 -73 45
-27 87 -49 93 -49 5 0 10 -4 10 -9 0 -5 9 -12 19 -16 11 -3 36 -17 55 -30 20
-13 36 -22 36 -18 0 3 8 -1 18 -9 9 -8 51 -35 92 -58 41 -24 83 -50 93 -58 9
-8 17 -11 17 -7 0 4 8 1 18 -7 9 -8 37 -26 62 -39 25 -13 47 -27 50 -30 3 -3
35 -23 73 -43 l67 -38 0 -1823 c0 -1446 -3 -1825 -12 -1833 -7 -5 -29 -19 -48
-30 -19 -10 -124 -72 -233 -136 -109 -64 -202 -116 -208 -116 -5 0 -9 -3 -9
-7 0 -5 -10 -13 -23 -19 -12 -6 -128 -73 -257 -149 -129 -76 -271 -160 -315
-185 -44 -26 -278 -163 -520 -305 -242 -142 -449 -263 -460 -269 -11 -6 -22
-13 -25 -16 -8 -8 -42 -28 -90 -51 -25 -13 -47 -25 -50 -29 -3 -3 -32 -22 -65
-41 -33 -19 -67 -38 -76 -44 -9 -5 -36 -21 -60 -34 -24 -13 -46 -26 -49 -30
-4 -5 -26 -18 -111 -64 -13 -7 -43 -25 -66 -40 -24 -15 -46 -27 -49 -27 -4 0
-22 -11 -40 -25 -18 -14 -40 -25 -48 -25 -9 0 -16 -4 -16 -8 0 -5 -19 -18 -42
-31 -24 -12 -72 -39 -108 -61 -129 -77 -123 -76 -172 -43 -24 16 -64 40 -90
53 -27 14 -48 28 -48 32 0 5 -4 8 -10 8 -9 0 -196 107 -317 182 -34 21 -67 38
-73 38 -5 0 -10 5 -10 11 0 5 -4 8 -9 5 -5 -3 -14 1 -21 9 -7 8 -19 15 -26 15
-8 0 -14 4 -14 9 0 5 -6 11 -13 13 -7 2 -70 37 -140 78 -70 41 -135 80 -145
85 -9 6 -59 35 -111 65 -51 30 -116 68 -145 84 -28 16 -53 33 -54 38 -2 4 -7
6 -12 3 -4 -3 -13 2 -20 10 -7 8 -16 15 -20 15 -4 0 -56 29 -115 65 -59 36
-108 65 -110 65 -2 0 -66 37 -142 83 -76 45 -152 89 -168 97 -17 8 -32 17 -35
20 -3 4 -70 44 -150 90 -80 46 -153 90 -164 99 -10 9 -21 16 -25 15 -3 -1 -23
10 -43 22 -21 13 -41 24 -46 24 -4 0 -13 5 -20 12 -7 7 -37 26 -67 43 -30 16
-111 64 -181 105 -70 41 -146 86 -168 99 -214 124 -332 194 -335 197 -10 10
-6 3637 4 3649 16 19 75 57 75 48 0 -4 4 -3 8 3 6 9 46 33 189 115 17 10 76
45 131 78 55 34 103 61 106 61 3 0 30 15 59 34 29 19 69 43 88 54 19 10 113
65 209 122 96 56 189 110 205 120 64 37 241 141 255 150 8 5 35 21 60 35 25
14 63 36 85 49 22 14 87 52 145 86 58 33 123 72 145 86 22 13 47 27 55 31 8 3
26 14 40 23 14 10 45 28 70 42 76 42 424 247 435 255 6 4 30 19 55 32 25 14
48 29 52 35 4 6 8 7 8 3 0 -5 12 0 28 11 15 11 43 29 63 40 20 11 47 26 60 34
13 7 31 18 39 24 8 7 38 24 65 39 28 14 118 66 200 115 83 49 156 90 163 90 7
0 47 -20 88 -45z"/>
<path d="M3847 6712 c-16 -3 -17 -103 -18 -1435 -1 -1309 -2 -1542 -9 -1542
-1 0 -4 -9 -5 -20 -14 -104 -62 -202 -133 -272 -47 -45 -144 -98 -197 -108
-16 -3 -46 -8 -65 -12 -19 -3 -79 -6 -132 -6 l-98 -1 0 -308 0 -308 193 5
c105 3 208 8 227 10 19 3 42 6 50 7 13 0 54 7 140 23 56 11 71 14 80 20 6 4
23 9 38 11 31 6 205 74 212 84 3 4 25 17 50 31 25 13 50 29 55 35 6 6 18 15
27 20 24 13 118 104 152 148 100 128 167 286 199 467 8 46 15 91 16 99 0 8 3
47 6 85 3 39 5 108 5 155 0 47 0 96 0 110 2 42 2 84 0 95 -1 6 -1 26 -1 45 2
73 3 155 1 165 -1 6 -1 15 0 20 2 12 2 276 0 290 -1 6 -2 14 -1 19 3 14 3 89
1 101 -1 6 -1 26 -1 45 2 73 3 155 1 165 -1 6 -1 15 0 20 2 12 2 276 0 290 -1
6 -2 14 -1 19 3 14 3 89 1 101 -1 6 -1 26 -1 45 2 73 3 155 1 165 -1 6 -1 15
0 20 2 12 2 276 0 290 -1 6 -2 14 -1 19 3 14 3 89 1 101 -1 6 -1 26 -1 45 2
73 3 155 1 165 -1 6 -1 15 0 20 5 25 2 283 -3 292 -4 6 -3 13 0 17 8 8 7 91
-1 105 -3 5 -2 11 4 13 6 2 6 9 0 17 -7 12 -70 15 -392 15 -212 1 -392 0 -401
-2z"/>
</g>
</svg>
